<svg width="22" height="20" viewBox="0 0 22 20" fill="none" xmlns="http://www.w3.org/2000/svg">
<path d="M2 0H18C18.5304 0 19.0391 0.210714 19.4142 0.585786C19.7893 0.960859 20 1.46957 20 2V14C20 14.5304 19.7893 15.0391 19.4142 15.4142C19.0391 15.7893 18.5304 16 18 16H2C1.46957 16 0.960859 15.7893 0.585786 15.4142C0.210714 15.0391 0 14.5304 0 14V2C0 1.46957 0.210714 0.960859 0.585786 0.585786C0.960859 0.210714 1.46957 0 2 0V0ZM2 2V14H18V2H2ZM10 6.5C10.3978 6.5 10.7794 6.65804 11.0607 6.93934C11.342 7.22064 11.5 7.60218 11.5 8C11.5 8.39782 11.342 8.77936 11.0607 9.06066C10.7794 9.34196 10.3978 9.5 10 9.5C9.60218 9.5 9.22064 9.34196 8.93934 9.06066C8.65804 8.77936 8.5 8.39782 8.5 8C8.5 7.60218 8.65804 7.22064 8.93934 6.93934C9.22064 6.65804 9.60218 6.5 10 6.5Z" fill="#820AD1"/>
<path d="M18.0101 19.5H18.5101V19V15.6617L19.4242 16.5758L19.7778 16.9293L20.1313 16.5758L21.3536 15.3536L21.7071 15L21.3536 14.6464L17.3536 10.6464L17 10.2929L16.6464 10.6464L12.6464 14.6464L12.2929 15L12.6464 15.3536L13.8687 16.5758L14.2222 16.9293L14.5758 16.5758L15.4899 15.6617V19V19.5H15.9899H18.0101Z" fill="#820AD1" stroke="#E8E8F0"/>
</svg>
